<?xml version="1.0" encoding="UTF-8" standalone="no"?><!DOCTYPE svg PUBLIC "-//W3C//DTD SVG 1.1//EN" "http://www.w3.org/Graphics/SVG/1.1/DTD/svg11.dtd"><svg width="100%" height="100%" viewBox="0 0 250 200" version="1.1" xmlns="http://www.w3.org/2000/svg" xmlns:xlink="http://www.w3.org/1999/xlink" xml:space="preserve" style="fill-rule:evenodd;clip-rule:evenodd;stroke-linejoin:round;stroke-miterlimit:1.41421;"><g><g><path d="M92.122,10.093c0,-5.571 -4.522,-10.093 -10.092,-10.093l-71.937,0c-5.571,0 -10.093,4.522 -10.093,10.093l0,13.55c0,5.57 4.522,10.092 10.093,10.092l71.937,0c5.57,0 10.092,-4.522 10.092,-10.092l0,-13.55Z" style="fill:#5aad5c;"/><text x="8.714px" y="20.903px" style="font-family:'ArialMT', 'Arial', sans-serif;font-size:16px;fill:#fff;">JavaScript</text></g><g><path d="M250,10.093c0,-5.571 -4.522,-10.093 -10.093,-10.093l-68.798,0c-5.57,0 -10.093,4.522 -10.093,10.093l0,13.55c0,5.57 4.523,10.092 10.093,10.092l68.798,0c5.571,0 10.093,-4.522 10.093,-10.092l0,-13.55Z" style="fill:#704996;"/><text x="168.873px" y="20.911px" style="font-family:'ArialMT', 'Arial', sans-serif;font-size:16px;fill:#fff;">Angular<tspan x="223.139px 227.584px " y="20.911px 20.911px ">.j</tspan>s</text></g><g><path d="M151.515,10.093c0,-5.571 -4.522,-10.093 -10.092,-10.093l-29.707,0c-5.571,0 -10.093,4.522 -10.093,10.093l0,13.55c0,5.57 4.522,10.092 10.093,10.092l29.707,0c5.57,0 10.092,-4.522 10.092,-10.092l0,-13.55Z" style="fill:#fb6964;"/><text x="108.343px" y="20.903px" style="font-family:'ArialMT', 'Arial', sans-serif;font-size:16px;fill:#fff;">D3.js</text></g></g><g><g><path d="M66.82,120.936c0,-5.571 -4.522,-10.093 -10.092,-10.093l-46.635,0c-5.571,0 -10.093,4.522 -10.093,10.093l0,13.55c0,5.57 4.522,10.092 10.093,10.092l46.635,0c5.57,0 10.092,-4.522 10.092,-10.092l0,-13.55Z" style="fill:#704996;"/><text x="9.848px" y="131.746px" style="font-family:'ArialMT', 'Arial', sans-serif;font-size:16px;fill:#fff;">jQuery</text></g><g><path d="M129.394,120.936c0,-5.571 -4.523,-10.093 -10.093,-10.093l-32.064,0c-5.57,0 -10.093,4.522 -10.093,10.093l0,13.55c0,5.57 4.523,10.092 10.093,10.092l32.064,0c5.57,0 10.093,-4.522 10.093,-10.092l0,-13.55Z" style="fill:#fb6964;"/><text x="84.259px" y="132.925px" style="font-family:'ArialMT', 'Arial', sans-serif;font-size:16px;fill:#fff;">Swift</text></g><g><path d="M180.848,120.936c0,-5.571 -4.523,-10.093 -10.093,-10.093l-20.945,0c-5.57,0 -10.093,4.522 -10.093,10.093l0,13.55c0,5.57 4.523,10.092 10.093,10.092l20.945,0c5.57,0 10.093,-4.522 10.093,-10.092l0,-13.55Z" style="fill:#5aad5c;"/><text x="149.442px" y="132.437px" style="font-family:'ArialMT', 'Arial', sans-serif;font-size:16px;fill:#fff;">Go</text></g><g><path d="M250,120.936c0,-5.571 -4.522,-10.093 -10.093,-10.093l-38.643,0c-5.57,0 -10.093,4.522 -10.093,10.093l0,13.55c0,5.57 4.523,10.092 10.093,10.092l38.643,0c5.571,0 10.093,-4.522 10.093,-10.092l0,-13.55Z" style="fill:#ffd464;"/><text x="201.91px" y="131.746px" style="font-family:'ArialMT', 'Arial', sans-serif;font-size:16px;fill:#fff;">Ruby</text></g></g><g><g><path d="M190.96,176.357c0,-5.57 -4.522,-10.092 -10.092,-10.092l-32.638,0c-5.57,0 -10.093,4.522 -10.093,10.092l0,13.55c0,5.571 4.523,10.093 10.093,10.093l32.638,0c5.57,0 10.092,-4.522 10.092,-10.093l0,-13.55Z" style="fill:#333332;"/><text x="147.205px" y="188.083px" style="font-family:'ArialMT', 'Arial', sans-serif;font-size:16px;fill:#fff;">CSS</text></g><g><path d="M131.347,176.357c0,-5.57 -4.522,-10.092 -10.093,-10.092l-28.09,0c-5.571,0 -10.093,4.522 -10.093,10.092l0,13.55c0,5.571 4.522,10.093 10.093,10.093l28.09,0c5.571,0 10.093,-4.522 10.093,-10.093l0,-13.55Z" style="fill:#704996;"/><text x="91.634px" y="188.859px" style="font-family:'ArialMT', 'Arial', sans-serif;font-size:16px;fill:#fff;">C++</text></g><g><path d="M76.281,176.357c0,-5.57 -4.523,-10.092 -10.093,-10.092l-56.095,0c-5.571,0 -10.093,4.522 -10.093,10.092l0,13.55c0,5.571 4.522,10.093 10.093,10.093l56.095,0c5.57,0 10.093,-4.522 10.093,-10.093l0,-13.55Z" style="fill:#1352a2;"/><text x="9.922px" y="187.121px" style="font-family:'ArialMT', 'Arial', sans-serif;font-size:16px;fill:#fff;">React.js</text></g><g><path d="M250,176.357c0,-5.57 -4.522,-10.092 -10.093,-10.092l-32.064,0c-5.57,0 -10.092,4.522 -10.092,10.092l0,13.55c0,5.571 4.522,10.093 10.092,10.093l32.064,0c5.571,0 10.093,-4.522 10.093,-10.093l0,-13.55Z" style="fill:#fb6964;"/><text x="207.087px" y="188.761px" style="font-family:'ArialMT', 'Arial', sans-serif;font-size:16px;fill:#fff;">Java</text></g></g><g><g><path d="M250,65.514c0,-5.57 -4.522,-10.092 -10.093,-10.092l-71.869,0c-5.571,0 -10.093,4.522 -10.093,10.092l0,13.55c0,5.571 4.522,10.093 10.093,10.093l71.869,0c5.571,0 10.093,-4.522 10.093,-10.093l0,-13.55Z" style="fill:#1352a2;"/><text x="166.18px" y="76.324px" style="font-family:'ArialMT', 'Arial', sans-serif;font-size:16px;fill:#fff;">T<tspan x="175.07px 183.07px " y="76.324px 76.324px ">yp</tspan>eScript</text></g><g><path d="M53.648,65.514c0,-5.57 -4.522,-10.092 -10.093,-10.092l-33.462,0c-5.571,0 -10.093,4.522 -10.093,10.092l0,13.55c0,5.571 4.522,10.093 10.093,10.093l33.462,0c5.571,0 10.093,-4.522 10.093,-10.093l0,-13.55Z" style="fill:#ffd464;"/><text x="11.108px" y="78.016px" style="font-family:'ArialMT', 'Arial', sans-serif;font-size:16px;fill:#fff;">PHP</text></g><g><path d="M140.331,65.514c0,-5.57 -4.522,-10.092 -10.093,-10.092l-48.883,0c-5.571,0 -10.093,4.522 -10.093,10.092l0,13.55c0,5.571 4.522,10.093 10.093,10.093l48.883,0c5.571,0 10.093,-4.522 10.093,-10.093l0,-13.55Z" style="fill:#333332;"/><text x="80.519px" y="77.308px" style="font-family:'ArialMT', 'Arial', sans-serif;font-size:16px;fill:#fff;">Python</text></g></g></svg>