<?xml version="1.0" encoding="UTF-8" standalone="no"?><!DOCTYPE svg PUBLIC "-//W3C//DTD SVG 1.1//EN" "http://www.w3.org/Graphics/SVG/1.1/DTD/svg11.dtd"><svg width="100%" height="100%" viewBox="0 0 250 200" version="1.1" xmlns="http://www.w3.org/2000/svg" xmlns:xlink="http://www.w3.org/1999/xlink" xml:space="preserve" style="fill-rule:evenodd;clip-rule:evenodd;stroke-linejoin:round;stroke-miterlimit:1.41421;"><path d="M113.658,4.534c0,-2.502 -2.032,-4.534 -4.534,-4.534l-84.777,0c-2.502,0 -4.534,2.032 -4.534,4.534l0,81.608c0,2.503 2.032,4.534 4.534,4.534l84.777,0c2.502,0 4.534,-2.031 4.534,-4.534l0,-81.608Z" style="fill:#333332;"/><path d="M230.187,4.534c0,-2.502 -2.032,-4.534 -4.534,-4.534l-84.777,0c-2.502,0 -4.534,2.032 -4.534,4.534l0,81.608c0,2.503 2.032,4.534 4.534,4.534l84.777,0c2.502,0 4.534,-2.031 4.534,-4.534l0,-81.608Z" style="fill:#704996;"/><path d="M113.658,113.858c0,-2.503 -2.032,-4.534 -4.534,-4.534l-84.777,0c-2.502,0 -4.534,2.031 -4.534,4.534l0,81.608c0,2.502 2.032,4.534 4.534,4.534l84.777,0c2.502,0 4.534,-2.032 4.534,-4.534l0,-81.608Z" style="fill:#5aad5c;"/><path d="M230.187,113.858c0,-2.503 -2.032,-4.534 -4.534,-4.534l-84.777,0c-2.502,0 -4.534,2.031 -4.534,4.534l0,81.608c0,2.502 2.032,4.534 4.534,4.534l84.777,0c2.502,0 4.534,-2.032 4.534,-4.534l0,-81.608Z" style="fill:#1352a2;"/><g transform="matrix(1,0,0,1,3.99413,-33.1955)"><text x="33.384px" y="64.093px" style="font-family:'ArialMT', 'Arial', sans-serif;font-size:14px;fill:#fff;">Commits</text><text x="40.973px" y="101.271px" style="font-family:'Arial-BoldMT', 'Arial', sans-serif;font-weight:700;font-size:36px;fill:#fff;">78</text></g><g transform="matrix(1,0,0,1,123.432,-36.1442)"><text x="34.546px" y="64.093px" style="font-family:'ArialMT', 'Arial', sans-serif;font-size:14px;fill:#fff;">Projects</text><text x="49.822px" y="101.271px" style="font-family:'Arial-BoldMT', 'Arial', sans-serif;font-weight:700;font-size:36px;fill:#fff;">7</text></g><g transform="matrix(1,0,0,1,121.059,73.1797)"><text x="40.03px" y="64.093px" style="font-family:'ArialMT', 'Arial', sans-serif;font-size:14px;fill:#fff;">T<tspan x="47.809px 57.919px " y="64.093px 64.093px ">we</tspan>ets</text><text x="42.184px" y="101.271px" style="font-family:'Arial-BoldMT', 'Arial', sans-serif;font-weight:700;font-size:36px;fill:#fff;">23</text></g><g transform="matrix(1,0,0,1,4.53026,73.1797)"><text x="28.743px" y="64.093px" style="font-family:'ArialMT', 'Arial', sans-serif;font-size:14px;fill:#fff;">Blog Posts</text><text x="42.184px" y="101.271px" style="font-family:'Arial-BoldMT', 'Arial', sans-serif;font-weight:700;font-size:36px;fill:#fff;">12</text></g></svg>