<?xml version="1.0" encoding="UTF-8" standalone="no"?><!DOCTYPE svg PUBLIC "-//W3C//DTD SVG 1.1//EN" "http://www.w3.org/Graphics/SVG/1.1/DTD/svg11.dtd"><svg width="100%" height="100%" viewBox="0 0 250 200" version="1.1" xmlns="http://www.w3.org/2000/svg" xmlns:xlink="http://www.w3.org/1999/xlink" xml:space="preserve" style="fill-rule:evenodd;clip-rule:evenodd;stroke-linecap:round;stroke-linejoin:round;stroke-miterlimit:1.5;"><path d="M225.911,4c0,-2.208 -1.792,-4 -4,-4l-193.822,0c-2.208,0 -4,1.792 -4,4l0,192c0,2.208 1.792,4 4,4l193.822,0c2.208,0 4,-1.792 4,-4l0,-192Z" style="fill:#fff;stroke:#bfbfbf;stroke-width:0.5px;"/><clipPath id="_clip1"><rect x="24.089" y="0" width="201.823" height="4.379"/></clipPath><g clip-path="url(#_clip1)"><path d="M225.911,4.036c0,-2.227 -1.808,-4.036 -4.036,-4.036l-193.75,0c-2.228,0 -4.036,1.809 -4.036,4.036l0,202.128c0,2.228 1.808,4.037 4.036,4.037l193.75,0c2.228,0 4.036,-1.809 4.036,-4.037l0,-202.128Z" style="fill:#fb6964;"/></g><text x="41.984px" y="123.21px" style="font-family:'Roboto-Regular', 'Roboto';font-size:15.52px;">Responsive La<tspan x="141.82px 149.049px " y="123.21px 123.21px ">yo</tspan>uts</text><path d="M94.212,89.369c0,-2.267 -1.841,-4.108 -4.108,-4.108l-44.012,0c-2.267,0 -4.108,1.841 -4.108,4.108l0,5.515c0,2.268 1.841,4.109 4.108,4.109l44.012,0c2.267,0 4.108,-1.841 4.108,-4.109l0,-5.515Z" style="fill:#704996;"/><path d="M132.51,89.369c0,-2.267 -1.841,-4.108 -4.108,-4.108l-24.581,0c-2.267,0 -4.108,1.841 -4.108,4.108l0,5.515c0,2.268 1.841,4.109 4.108,4.109l24.581,0c2.267,0 4.108,-1.841 4.108,-4.109l0,-5.515Z" style="fill:#5aad5c;"/><text x="104.379px" y="94.29px" style="font-family:'Roboto-Light', 'Roboto';font-weight:300;font-size:8.357px;fill:#fff;">jQuery</text><text x="48.746px" y="94.241px" style="font-family:'Roboto-Light', 'Roboto';font-weight:300;font-size:8.357px;fill:#fff;">Jav<tspan x="61.718px " y="94.241px ">a</tspan>Script</text><text x="66.201px" y="41.608px" style="font-family:'Roboto-Bold', 'Roboto';font-weight:700;font-size:31.627px;">Courses</text><rect x="47.597" y="53.853" width="154.805" height="0.472" style="fill:#b3b3b3;"/><text x="41.984px" y="77.977px" style="font-family:'Roboto-Regular', 'Roboto';font-size:15.52px;">Build an App</text><path d="M69.344,133.108c0,-2.267 -1.841,-4.108 -4.108,-4.108l-19.144,0c-2.267,0 -4.108,1.841 -4.108,4.108l0,5.515c0,2.267 1.841,4.108 4.108,4.108l19.144,0c2.267,0 4.108,-1.841 4.108,-4.108l0,-5.515Z" style="fill:#fb6964;"/><path d="M106.876,133.108c0,-2.267 -1.841,-4.108 -4.108,-4.108l-24.581,0c-2.268,0 -4.109,1.841 -4.109,4.108l0,5.515c0,2.267 1.841,4.108 4.109,4.108l24.581,0c2.267,0 4.108,-1.841 4.108,-4.108l0,-5.515Z" style="fill:#1352a2;"/><text x="79.533px" y="138.028px" style="font-family:'Roboto-Light', 'Roboto';font-weight:300;font-size:8.357px;fill:#fff;">H<tspan x="85.327px " y="138.028px ">T</tspan>ML</text><text x="47.899px" y="138.836px" style="font-family:'Roboto-Light', 'Roboto';font-weight:300;font-size:8.357px;fill:#fff;">CSS</text><text x="41.984px" y="166.308px" style="font-family:'Roboto-Regular', 'Roboto';font-size:15.52px;">Data Structur<tspan x="132.9px " y="166.308px ">e</tspan>s</text><path d="M119.997,175.947c0,-2.267 -1.841,-4.108 -4.109,-4.108l-69.796,0c-2.267,0 -4.108,1.841 -4.108,4.108l0,5.516c0,2.267 1.841,4.108 4.108,4.108l69.796,0c2.268,0 4.109,-1.841 4.109,-4.108l0,-5.516Z" style="fill:#333;"/><circle cx="206.739" cy="74.051" r="7.396" style="fill:none;stroke:#333;stroke-width:1px;"/><text x="47.899px" y="180.868px" style="font-family:'Roboto-Light', 'Roboto';font-weight:300;font-size:8.357px;fill:#fff;">Computer Science</text><path id="checkmark.-one" d="M206.651,66.743c-4.03,0 -7.308,3.278 -7.308,7.308c0,4.03 3.278,7.309 7.308,7.309c4.03,0 7.308,-3.279 7.308,-7.309c0,-4.03 -3.278,-7.308 -7.308,-7.308Zm4.197,6.074l-4.592,4.591c-0.195,0.195 -0.455,0.303 -0.731,0.303c-0.276,0 -0.535,-0.108 -0.731,-0.303l-2.34,-2.34c-0.195,-0.195 -0.302,-0.455 -0.302,-0.731c0,-0.276 0.107,-0.535 0.302,-0.731c0.196,-0.195 0.455,-0.302 0.731,-0.302c0.276,0 0.536,0.107 0.731,0.303l1.609,1.609l3.861,-3.861c0.195,-0.195 0.455,-0.303 0.731,-0.303c0.276,0 0.535,0.108 0.73,0.303c0.404,0.403 0.404,1.059 0.001,1.462Z" style="fill:#5aad5c;fill-rule:nonzero;"/><circle cx="206.739" cy="119.285" r="7.396" style="fill:none;stroke:#333;stroke-width:1px;"/><path id="checkmark.-two" d="M206.651,111.976c-4.03,0 -7.308,3.279 -7.308,7.309c0,4.03 3.278,7.308 7.308,7.308c4.03,0 7.308,-3.278 7.308,-7.308c0,-4.03 -3.278,-7.309 -7.308,-7.309Zm4.197,6.074l-4.592,4.592c-0.195,0.195 -0.455,0.302 -0.731,0.302c-0.276,0 -0.535,-0.107 -0.731,-0.302l-2.34,-2.34c-0.195,-0.196 -0.302,-0.455 -0.302,-0.731c0,-0.276 0.107,-0.536 0.302,-0.731c0.196,-0.195 0.455,-0.303 0.731,-0.303c0.276,0 0.536,0.108 0.731,0.303l1.609,1.609l3.861,-3.86c0.195,-0.196 0.455,-0.303 0.731,-0.303c0.276,0 0.535,0.107 0.73,0.303c0.404,0.403 0.404,1.058 0.001,1.461Z" style="fill:#5aad5c;fill-rule:nonzero;"/><circle cx="206.739" cy="162.527" r="7.396" style="fill:none;stroke:#333;stroke-width:1px;"/><path id="checkmark.-three" d="M206.651,155.219c-4.03,0 -7.308,3.278 -7.308,7.308c0,4.03 3.278,7.309 7.308,7.309c4.03,0 7.308,-3.279 7.308,-7.309c0,-4.03 -3.278,-7.308 -7.308,-7.308Zm4.197,6.074l-4.592,4.591c-0.195,0.196 -0.455,0.303 -0.731,0.303c-0.276,0 -0.535,-0.107 -0.731,-0.303l-2.34,-2.34c-0.195,-0.195 -0.302,-0.455 -0.302,-0.731c0,-0.276 0.107,-0.535 0.302,-0.73c0.196,-0.196 0.455,-0.303 0.731,-0.303c0.276,0 0.536,0.107 0.731,0.303l1.609,1.609l3.861,-3.861c0.195,-0.195 0.455,-0.303 0.731,-0.303c0.276,0 0.535,0.108 0.73,0.303c0.404,0.403 0.404,1.059 0.001,1.462Z" style="fill:#5aad5c;fill-rule:nonzero;"/></svg>