<?xml version="1.0" encoding="UTF-8" standalone="no"?><!DOCTYPE svg PUBLIC "-//W3C//DTD SVG 1.1//EN" "http://www.w3.org/Graphics/SVG/1.1/DTD/svg11.dtd"><svg width="100%" height="100%" viewBox="0 0 250 200" version="1.1" xmlns="http://www.w3.org/2000/svg" xmlns:xlink="http://www.w3.org/1999/xlink" xml:space="preserve" style="fill-rule:evenodd;clip-rule:evenodd;stroke-linecap:round;stroke-linejoin:round;stroke-miterlimit:1.5;"><g id="Projects"><path d="M159.045,3.193c0,-1.749 -1.42,-3.17 -3.17,-3.17l-152.165,0c-1.75,0 -3.171,1.421 -3.171,3.17l0,168.55c0,1.75 1.421,3.17 3.171,3.17l152.165,0c1.75,0 3.17,-1.42 3.17,-3.17l0,-168.55Z" style="fill:#fff;stroke:#bfbfbf;stroke-width:0.5px;"/><clipPath id="_clip1"><rect x="0.539" y="0.023" width="158.506" height="3.439"/></clipPath><g clip-path="url(#_clip1)"><path d="M159.045,3.193c0,-1.749 -1.42,-3.17 -3.17,-3.17l-152.165,0c-1.75,0 -3.171,1.421 -3.171,3.17l0,158.746c0,1.75 1.421,3.17 3.171,3.17l152.165,0c1.75,0 3.17,-1.42 3.17,-3.17l0,-158.746Z" style="fill:#1352a2;"/></g><g><g><path d="M122.425,80.524c0,-1.691 -1.373,-3.064 -3.063,-3.064l-98.691,0c-1.691,0 -3.063,1.373 -3.063,3.064l0,4.084c0,1.691 1.372,3.064 3.063,3.064l98.691,0c1.69,0 3.063,-1.373 3.063,-3.064l0,-4.084Z" style="fill:#e6e6e6;"/><clipPath id="_clip2"><rect x="17.608" y="77.46" width="41.43" height="10.211"/></clipPath><g clip-path="url(#_clip2)"><path d="M122.425,80.524c0,-1.691 -1.373,-3.064 -3.063,-3.064l-98.691,0c-1.691,0 -3.063,1.373 -3.063,3.064l0,4.084c0,1.691 1.372,3.064 3.063,3.064l98.691,0c1.69,0 3.063,-1.373 3.063,-3.064l0,-4.084Z" style="fill:#1352a2;"/></g></g></g><text x="18.496px" y="66.877px" style="font-family:'Roboto-Regular', 'Roboto';font-size:12.189px;">Online Boar<tspan x="80.9px " y="66.877px ">d</tspan> Game</text><g><g><path d="M122.425,134.673c0,-1.69 -1.373,-3.063 -3.063,-3.063l-98.691,0c-1.691,0 -3.063,1.373 -3.063,3.063l0,4.085c0,1.691 1.372,3.064 3.063,3.064l98.691,0c1.69,0 3.063,-1.373 3.063,-3.064l0,-4.085Z" style="fill:#e6e6e6;"/><clipPath id="_clip3"><rect x="17.608" y="131.61" width="81.056" height="10.211"/></clipPath><g clip-path="url(#_clip3)"><path d="M122.425,134.673c0,-1.69 -1.373,-3.063 -3.063,-3.063l-98.691,0c-1.691,0 -3.063,1.373 -3.063,3.063l0,4.085c0,1.691 1.372,3.064 3.063,3.064l98.691,0c1.69,0 3.063,-1.373 3.063,-3.064l0,-4.085Z" style="fill:#1352a2;"/></g></g></g><text x="18.496px" y="121.027px" style="font-family:'Roboto-Regular', 'Roboto';font-size:12.189px;">Movie Re<tspan x="68.223px " y="121.027px ">v</tspan>iew App</text><text x="33.312px" y="35.689px" style="font-family:'Roboto-Bold', 'Roboto';font-weight:700;font-size:24.839px;">Pr<tspan x="57.957px " y="35.689px ">o</tspan>jects</text><rect x="19.198" y="45.832" width="121.58" height="0.371" style="fill:#b3b3b3;"/></g><g id="Resources"><path d="M243.298,46.067c0,-1.734 -1.407,-3.142 -3.141,-3.142l-152.223,0c-1.734,0 -3.142,1.408 -3.142,3.142l0,150.792c0,1.733 1.408,3.141 3.142,3.141l152.223,0c1.734,0 3.141,-1.408 3.141,-3.141l0,-150.792Z" style="fill:#fff;stroke:#bfbfbf;stroke-width:0.5px;"/><clipPath id="_clip4"><rect x="84.792" y="42.925" width="158.506" height="3.439"/></clipPath><g clip-path="url(#_clip4)"><path d="M243.298,46.096c0,-1.75 -1.42,-3.171 -3.17,-3.171l-152.165,0c-1.75,0 -3.171,1.421 -3.171,3.171l0,158.745c0,1.75 1.421,3.17 3.171,3.17l152.165,0c1.75,0 3.17,-1.42 3.17,-3.17l0,-158.745Z" style="fill:#fb6964;"/></g><g transform="matrix(0.937627,0,0,0.937627,71.349,43.6882)"><text x="29.397px" y="116.032px" style="font-family:'Roboto-Regular', 'Roboto';font-size:13px;">CSS <tspan x="56.248px 63.528px 67.673px " y="116.032px 116.032px 116.032px ">Tra</tspan>nsitions and</text><text x="29.397px" y="129.032px" style="font-family:'Roboto-Regular', 'Roboto';font-size:13px;">Animations 101</text></g><path d="M140.865,117.826c0,-1.781 -1.445,-3.226 -3.226,-3.226l-34.566,0c-1.78,0 -3.226,1.445 -3.226,3.226l0,4.331c0,1.781 1.446,3.227 3.226,3.227l34.566,0c1.781,0 3.226,-1.446 3.226,-3.227l0,-4.331Z" style="fill:#704996;"/><path d="M170.944,117.826c0,-1.781 -1.446,-3.226 -3.227,-3.226l-19.305,0c-1.781,0 -3.227,1.445 -3.227,3.226l0,4.331c0,1.781 1.446,3.227 3.227,3.227l19.305,0c1.781,0 3.227,-1.446 3.227,-3.227l0,-4.331Z" style="fill:#1352a2;"/><text x="148.85px" y="121.69px" style="font-family:'Roboto-Light', 'Roboto';font-weight:300;font-size:6.563px;fill:#fff;">jQuery</text><text x="104.726px" y="75.397px" style="font-family:'Roboto-Bold', 'Roboto';font-weight:700;font-size:24.839px;">Resour<tspan x="183.548px " y="75.397px ">c</tspan>es</text><rect x="103.256" y="85.22" width="121.58" height="0.371" style="fill:#b3b3b3;"/><text x="99.532px" y="108.878px" style="font-family:'Roboto-Regular', 'Roboto';font-size:12.189px;">Intr<tspan x="117.559px " y="108.878px ">o</tspan> t<tspan x="131.391px " y="108.878px ">o</tspan> Jav<tspan x="160.442px " y="108.878px ">a</tspan>Script</text><text x="105.157px" y="121.652px" style="font-family:'Roboto-Light', 'Roboto';font-weight:300;font-size:6.563px;fill:#fff;">JavaScript</text><path d="M121.262,173.382c0,-1.781 -1.446,-3.226 -3.226,-3.226l-15.035,0c-1.781,0 -3.226,1.445 -3.226,3.226l0,4.332c0,1.78 1.445,3.226 3.226,3.226l15.035,0c1.78,0 3.226,-1.446 3.226,-3.226l0,-4.332Z" style="fill:#333;"/><path d="M150.739,173.382c0,-1.781 -1.446,-3.226 -3.227,-3.226l-19.305,0c-1.781,0 -3.226,1.445 -3.226,3.226l0,4.332c0,1.78 1.445,3.226 3.226,3.226l19.305,0c1.781,0 3.227,-1.446 3.227,-3.226l0,-4.332Z" style="fill:#1352a2;"/><text x="130.835px" y="177.246px" style="font-family:'Roboto-Light', 'Roboto';font-weight:300;font-size:6.563px;fill:#fff;">Sass</text><text x="104.42px" y="177.246px" style="font-family:'Roboto-Light', 'Roboto';font-weight:300;font-size:6.563px;fill:#fff;">CSS</text></g></svg>