<?xml version="1.0" encoding="UTF-8" standalone="no"?><!DOCTYPE svg PUBLIC "-//W3C//DTD SVG 1.1//EN" "http://www.w3.org/Graphics/SVG/1.1/DTD/svg11.dtd"><svg width="100%" height="100%" viewBox="0 0 750 400" version="1.1" xmlns="http://www.w3.org/2000/svg" xmlns:xlink="http://www.w3.org/1999/xlink" xml:space="preserve" style="fill-rule:evenodd;clip-rule:evenodd;stroke-linejoin:round;stroke-miterlimit:1.41421;"><rect x="0" y="24.496" width="78.834" height="375.504" style="fill:#333332;"/><rect x="0" y="0" width="750" height="24.496" style="fill:#fff;"/><rect x="78.834" y="24.496" width="671.166" height="45.092" style="fill:#fb6964;"/><rect x="78.834" y="69.588" width="671.166" height="330.412" style="fill:#f0f1ee;"/><circle cx="58.881" cy="12.248" r="5.944" style="fill:#1352a2;"/><circle cx="38.029" cy="12.248" r="5.944" style="fill:#ffd464;"/><circle cx="17.176" cy="12.248" r="5.944" style="fill:#fb6964;"/><path d="M296.424,196.629c0,-1.866 -1.515,-3.381 -3.381,-3.381l-162.288,0c-1.866,0 -3.381,1.515 -3.381,3.381l0,169.306c0,1.866 1.515,3.381 3.381,3.381l162.288,0c1.866,0 3.381,-1.515 3.381,-3.381l0,-169.306Z" style="fill:#fff;"/><path d="M496.535,196.629c0,-1.866 -1.515,-3.381 -3.381,-3.381l-162.288,0c-1.866,0 -3.381,1.515 -3.381,3.381l0,169.306c0,1.866 1.515,3.381 3.381,3.381l162.288,0c1.866,0 3.381,-1.515 3.381,-3.381l0,-169.306Z" style="fill:#fff;"/><path d="M696.454,196.629c0,-1.866 -1.515,-3.381 -3.381,-3.381l-162.288,0c-1.866,0 -3.381,1.515 -3.381,3.381l0,169.306c0,1.866 1.515,3.381 3.381,3.381l162.288,0c1.866,0 3.381,-1.515 3.381,-3.381l0,-169.306Z" style="fill:#fff;"/><clipPath id="_clip1"><rect x="127.374" y="193.248" width="169.05" height="3.668"/></clipPath><g clip-path="url(#_clip1)"><path d="M296.424,196.629c0,-1.866 -1.515,-3.381 -3.381,-3.381l-162.288,0c-1.866,0 -3.381,1.515 -3.381,3.381l0,169.306c0,1.866 1.515,3.381 3.381,3.381l162.288,0c1.866,0 3.381,-1.515 3.381,-3.381l0,-169.306Z" style="fill:#fb6964;"/></g><path d="M180.935,102.482c0,-1.478 -1.2,-2.678 -2.678,-2.678l-48.205,0c-1.478,0 -2.678,1.2 -2.678,2.678l0,48.205c0,1.478 1.2,2.678 2.678,2.678l48.205,0c1.478,0 2.678,-1.2 2.678,-2.678l0,-48.205Z" style="fill:#333332;"/><path d="M247.443,102.482c0,-1.478 -1.2,-2.678 -2.678,-2.678l-48.205,0c-1.478,0 -2.678,1.2 -2.678,2.678l0,48.205c0,1.478 1.2,2.678 2.678,2.678l48.205,0c1.478,0 2.678,-1.2 2.678,-2.678l0,-48.205Z" style="fill:#704996;"/><path d="M312.458,102.482c0,-1.478 -1.2,-2.678 -2.678,-2.678l-48.205,0c-1.478,0 -2.678,1.2 -2.678,2.678l0,48.205c0,1.478 1.2,2.678 2.678,2.678l48.205,0c1.478,0 2.678,-1.2 2.678,-2.678l0,-48.205Z" style="fill:#5aad5c;"/><path d="M377.2,102.482c0,-1.478 -1.2,-2.678 -2.678,-2.678l-48.205,0c-1.478,0 -2.678,1.2 -2.678,2.678l0,48.205c0,1.478 1.2,2.678 2.678,2.678l48.205,0c1.478,0 2.678,-1.2 2.678,-2.678l0,-48.205Z" style="fill:#1352a2;"/><path d="M698.163,102.482c0,-1.478 -1.2,-2.678 -2.678,-2.678l-258.173,0c-1.478,0 -2.678,1.2 -2.678,2.678l0,48.205c0,1.478 1.2,2.678 2.678,2.678l258.173,0c1.478,0 2.678,-1.2 2.678,-2.678l0,-48.205Z" style="fill:#fff;"/><path d="M276.45,214.648c0,-0.133 -0.107,-0.241 -0.24,-0.241l-128.622,0c-0.132,0 -0.24,0.108 -0.24,0.241l0,23.563c0,0.133 0.108,0.24 0.24,0.24l128.622,0c0.133,0 0.24,-0.107 0.24,-0.24l0,-23.563Z" style="fill:#e6e6e6;"/><clipPath id="_clip2"><rect x="127.374" y="193.248" width="169.05" height="3.668"/></clipPath><g clip-path="url(#_clip2)"><path d="M296.424,196.629c0,-1.866 -1.515,-3.381 -3.381,-3.381l-162.288,0c-1.866,0 -3.381,1.515 -3.381,3.381l0,169.306c0,1.866 1.515,3.381 3.381,3.381l162.288,0c1.866,0 3.381,-1.515 3.381,-3.381l0,-169.306Z" style="fill:#fb6964;"/></g><path d="M276.45,214.648c0,-0.133 -0.107,-0.241 -0.24,-0.241l-128.622,0c-0.132,0 -0.24,0.108 -0.24,0.241l0,23.563c0,0.133 0.108,0.24 0.24,0.24l128.622,0c0.133,0 0.24,-0.107 0.24,-0.24l0,-23.563Z" style="fill:#e6e6e6;"/><g><path d="M259.138,254.038c0,-0.06 -0.049,-0.109 -0.109,-0.109l-111.572,0c-0.06,0 -0.109,0.049 -0.109,0.109l0,10.673c0,0.06 0.049,0.109 0.109,0.109l111.572,0c0.06,0 0.109,-0.049 0.109,-0.109l0,-10.673Z" style="fill:#b3b3b3;"/><g><path d="M174.82,273.222c0,-1.9 -1.542,-3.441 -3.441,-3.441l-20.59,0c-1.899,0 -3.441,1.541 -3.441,3.441l0,4.619c0,1.899 1.542,3.441 3.441,3.441l20.59,0c1.899,0 3.441,-1.542 3.441,-3.441l0,-4.619Z" style="fill:#e6e6e6;"/><path d="M205.497,273.222c0,-1.9 -1.542,-3.441 -3.441,-3.441l-20.59,0c-1.899,0 -3.441,1.541 -3.441,3.441l0,4.619c0,1.899 1.542,3.441 3.441,3.441l20.59,0c1.899,0 3.441,-1.542 3.441,-3.441l0,-4.619Z" style="fill:#e6e6e6;"/><path d="M236.174,273.222c0,-1.9 -1.542,-3.441 -3.441,-3.441l-20.59,0c-1.899,0 -3.441,1.541 -3.441,3.441l0,4.619c0,1.899 1.542,3.441 3.441,3.441l20.59,0c1.899,0 3.441,-1.542 3.441,-3.441l0,-4.619Z" style="fill:#e6e6e6;"/></g><path d="M266.316,299.85c0,-0.06 -0.049,-0.109 -0.109,-0.109l-118.75,0c-0.06,0 -0.109,0.049 -0.109,0.109l0,10.673c0,0.06 0.049,0.109 0.109,0.109l118.75,0c0.06,0 0.109,-0.049 0.109,-0.109l0,-10.673Z" style="fill:#b3b3b3;"/><path d="M228.028,316.154c0,-0.06 -0.049,-0.108 -0.109,-0.108l-80.462,0c-0.06,0 -0.109,0.048 -0.109,0.108l0,10.673c0,0.061 0.049,0.109 0.109,0.109l80.462,0c0.06,0 0.109,-0.048 0.109,-0.109l0,-10.673Z" style="fill:#b3b3b3;"/><g><path d="M174.82,337.506c0,-1.899 -1.542,-3.441 -3.441,-3.441l-20.59,0c-1.899,0 -3.441,1.542 -3.441,3.441l0,4.62c0,1.899 1.542,3.441 3.441,3.441l20.59,0c1.899,0 3.441,-1.542 3.441,-3.441l0,-4.62Z" style="fill:#e6e6e6;"/><path d="M205.497,337.506c0,-1.899 -1.542,-3.441 -3.441,-3.441l-20.59,0c-1.899,0 -3.441,1.542 -3.441,3.441l0,4.62c0,1.899 1.542,3.441 3.441,3.441l20.59,0c1.899,0 3.441,-1.542 3.441,-3.441l0,-4.62Z" style="fill:#e6e6e6;"/><path d="M236.174,337.506c0,-1.899 -1.542,-3.441 -3.441,-3.441l-20.59,0c-1.899,0 -3.441,1.542 -3.441,3.441l0,4.62c0,1.899 1.542,3.441 3.441,3.441l20.59,0c1.899,0 3.441,-1.542 3.441,-3.441l0,-4.62Z" style="fill:#e6e6e6;"/></g></g><clipPath id="_clip3"><rect x="327.485" y="193.248" width="169.05" height="3.668"/></clipPath><g clip-path="url(#_clip3)"><path d="M496.535,196.629c0,-1.866 -1.515,-3.381 -3.381,-3.381l-162.288,0c-1.866,0 -3.381,1.515 -3.381,3.381l0,169.306c0,1.866 1.515,3.381 3.381,3.381l162.288,0c1.866,0 3.381,-1.515 3.381,-3.381l0,-169.306Z" style="fill:#1352a2;"/></g><path d="M476.561,214.648c0,-0.133 -0.108,-0.241 -0.24,-0.241l-128.622,0c-0.133,0 -0.24,0.108 -0.24,0.241l0,23.563c0,0.133 0.107,0.24 0.24,0.24l128.622,0c0.132,0 0.24,-0.107 0.24,-0.24l0,-23.563Z" style="fill:#e6e6e6;"/><g><path d="M449.751,254.038c0,-0.06 -0.049,-0.109 -0.109,-0.109l-102.074,0c-0.061,0 -0.109,0.049 -0.109,0.109l0,10.673c0,0.06 0.048,0.109 0.109,0.109l102.074,0c0.06,0 0.109,-0.049 0.109,-0.109l0,-10.673Z" style="fill:#b3b3b3;"/><path d="M421.371,270.701c0,-0.06 -0.049,-0.109 -0.109,-0.109l-73.694,0c-0.061,0 -0.109,0.049 -0.109,0.109l0,10.673c0,0.06 0.048,0.109 0.109,0.109l73.694,0c0.06,0 0.109,-0.049 0.109,-0.109l0,-10.673Z" style="fill:#b3b3b3;"/><g><path d="M459.249,291.568c0,-1.803 -1.464,-3.267 -3.267,-3.267l-105.256,0c-1.803,0 -3.267,1.464 -3.267,3.267l0,4.356c0,1.804 1.464,3.268 3.267,3.268l105.256,0c1.803,0 3.267,-1.464 3.267,-3.268l0,-4.356Z" style="fill:#e6e6e6;"/><clipPath id="_clip4"><rect x="347.459" y="288.301" width="44.186" height="10.891"/></clipPath><g clip-path="url(#_clip4)"><path d="M459.249,291.568c0,-1.803 -1.464,-3.267 -3.267,-3.267l-105.256,0c-1.803,0 -3.267,1.464 -3.267,3.267l0,4.356c0,1.804 1.464,3.268 3.267,3.268l105.256,0c1.803,0 3.267,-1.464 3.267,-3.268l0,-4.356Z" style="fill:#8c8c8c;"/></g></g><path d="M421.371,312.317c0,-0.06 -0.049,-0.109 -0.109,-0.109l-73.694,0c-0.061,0 -0.109,0.049 -0.109,0.109l0,10.673c0,0.06 0.048,0.109 0.109,0.109l73.694,0c0.06,0 0.109,-0.049 0.109,-0.109l0,-10.673Z" style="fill:#b3b3b3;"/><g><path d="M459.249,331.778c0,-1.803 -1.464,-3.267 -3.267,-3.267l-105.256,0c-1.803,0 -3.267,1.464 -3.267,3.267l0,4.356c0,1.804 1.464,3.268 3.267,3.268l105.256,0c1.803,0 3.267,-1.464 3.267,-3.268l0,-4.356Z" style="fill:#e6e6e6;"/><clipPath id="_clip5"><rect x="347.459" y="328.511" width="44.186" height="10.891"/></clipPath><g clip-path="url(#_clip5)"><path d="M459.249,331.778c0,-1.803 -1.464,-3.267 -3.267,-3.267l-105.256,0c-1.803,0 -3.267,1.464 -3.267,3.267l0,4.356c0,1.804 1.464,3.268 3.267,3.268l105.256,0c1.803,0 3.267,-1.464 3.267,-3.268l0,-4.356Z" style="fill:#8c8c8c;"/></g></g></g><clipPath id="_clip6"><rect x="527.595" y="193.248" width="169.05" height="3.668"/></clipPath><g clip-path="url(#_clip6)"><path d="M696.646,196.629c0,-1.866 -1.515,-3.381 -3.381,-3.381l-162.289,0c-1.866,0 -3.381,1.515 -3.381,3.381l0,169.306c0,1.866 1.515,3.381 3.381,3.381l162.289,0c1.866,0 3.381,-1.515 3.381,-3.381l0,-169.306Z" style="fill:#704996;"/></g><path d="M676.672,214.648c0,-0.133 -0.108,-0.241 -0.241,-0.241l-128.621,0c-0.133,0 -0.241,0.108 -0.241,0.241l0,23.563c0,0.133 0.108,0.24 0.241,0.24l128.621,0c0.133,0 0.241,-0.107 0.241,-0.24l0,-23.563Z" style="fill:#e6e6e6;"/><g><path d="M659.36,318.323c0,-0.061 -0.049,-0.109 -0.109,-0.109l-111.573,0c-0.06,0 -0.109,0.048 -0.109,0.109l0,10.673c0,0.06 0.049,0.108 0.109,0.108l111.573,0c0.06,0 0.109,-0.048 0.109,-0.108l0,-10.673Z" style="fill:#b3b3b3;"/><g><path d="M575.041,337.506c0,-1.899 -1.542,-3.441 -3.441,-3.441l-20.59,0c-1.899,0 -3.441,1.542 -3.441,3.441l0,4.62c0,1.899 1.542,3.441 3.441,3.441l20.59,0c1.899,0 3.441,-1.542 3.441,-3.441l0,-4.62Z" style="fill:#e6e6e6;"/><path d="M605.718,337.506c0,-1.899 -1.542,-3.441 -3.441,-3.441l-20.589,0c-1.9,0 -3.441,1.542 -3.441,3.441l0,4.62c0,1.899 1.541,3.441 3.441,3.441l20.589,0c1.899,0 3.441,-1.542 3.441,-3.441l0,-4.62Z" style="fill:#e6e6e6;"/><path d="M636.396,337.506c0,-1.899 -1.542,-3.441 -3.441,-3.441l-20.59,0c-1.899,0 -3.441,1.542 -3.441,3.441l0,4.62c0,1.899 1.542,3.441 3.441,3.441l20.59,0c1.899,0 3.441,-1.542 3.441,-3.441l0,-4.62Z" style="fill:#e6e6e6;"/></g></g><g><path d="M666.711,254.038c0,-0.06 -0.049,-0.109 -0.109,-0.109l-118.75,0c-0.06,0 -0.109,0.049 -0.109,0.109l0,10.673c0,0.06 0.049,0.109 0.109,0.109l118.75,0c0.06,0 0.109,-0.049 0.109,-0.109l0,-10.673Z" style="fill:#b3b3b3;"/><path d="M628.423,270.342c0,-0.06 -0.049,-0.109 -0.109,-0.109l-80.462,0c-0.06,0 -0.109,0.049 -0.109,0.109l0,10.673c0,0.06 0.049,0.109 0.109,0.109l80.462,0c0.06,0 0.109,-0.049 0.109,-0.109l0,-10.673Z" style="fill:#b3b3b3;"/><g><path d="M575.215,291.694c0,-1.899 -1.542,-3.441 -3.441,-3.441l-20.59,0c-1.899,0 -3.441,1.542 -3.441,3.441l0,4.62c0,1.899 1.542,3.441 3.441,3.441l20.59,0c1.899,0 3.441,-1.542 3.441,-3.441l0,-4.62Z" style="fill:#e6e6e6;"/><path d="M605.892,291.694c0,-1.899 -1.542,-3.441 -3.441,-3.441l-20.59,0c-1.899,0 -3.441,1.542 -3.441,3.441l0,4.62c0,1.899 1.542,3.441 3.441,3.441l20.59,0c1.899,0 3.441,-1.542 3.441,-3.441l0,-4.62Z" style="fill:#e6e6e6;"/><path d="M636.569,291.694c0,-1.899 -1.542,-3.441 -3.441,-3.441l-20.59,0c-1.899,0 -3.441,1.542 -3.441,3.441l0,4.62c0,1.899 1.542,3.441 3.441,3.441l20.59,0c1.899,0 3.441,-1.542 3.441,-3.441l0,-4.62Z" style="fill:#e6e6e6;"/></g></g></svg>